<?xml version="1.0" standalone="no"?>
<!DOCTYPE svg PUBLIC "-//W3C//DTD SVG 20010904//EN"
 "http://www.w3.org/TR/2001/REC-SVG-20010904/DTD/svg10.dtd">
<svg version="1.0" xmlns="http://www.w3.org/2000/svg"
 width="480.000000pt" height="600.000000pt" viewBox="0 0 480.000000 600.000000"
 preserveAspectRatio="xMidYMid meet">

<g transform="translate(0.000000,600.000000) scale(0.100000,-0.100000)"
fill="#000000" stroke="none">
<path d="M0 3000 l0 -3000 1093 0 c837 0 1096 3 1105 12 17 17 15 43 -4 59
-18 14 -11 78 9 92 7 4 0 5 -16 1 -21 -5 -27 -3 -27 10 0 9 5 16 10 16 6 0 10
9 10 20 0 11 8 29 18 41 47 58 62 61 44 10 -9 -26 -8 -29 6 -23 27 10 73 66
67 81 -3 8 -1 17 4 20 5 3 11 15 13 26 1 11 14 25 27 31 18 8 20 12 8 17 -8 3
-24 -3 -36 -14 -12 -11 -26 -17 -32 -13 -8 5 -8 9 0 14 7 3 -2 7 -18 7 -20 0
-31 -6 -34 -19 -6 -22 -35 -24 -43 -3 -8 20 -44 20 -44 0 0 -14 -18 -18 -71
-19 -11 0 -15 -5 -11 -15 4 -11 1 -13 -14 -6 -10 4 -37 9 -58 9 -28 1 -42 7
-50 21 -14 25 -28 35 -38 29 -21 -13 -17 29 6 59 29 38 33 57 12 57 -15 0 -28
48 -15 56 5 3 9 13 9 23 0 10 10 31 23 47 12 16 21 29 19 29 -8 0 14 42 30 56
10 9 18 20 18 25 0 5 9 20 20 34 l19 25 -9 -40 c-5 -22 -9 -53 -9 -70 l1 -30
17 38 18 37 13 -40 c15 -46 30 -53 30 -14 0 20 4 25 18 22 22 -6 39 11 48 47
4 15 15 30 25 32 11 3 19 13 20 22 0 10 2 11 6 4 2 -8 22 -13 44 -13 36 0 39
-2 39 -27 l1 -28 14 25 c11 19 14 21 15 8 0 -10 5 -18 10 -18 10 0 14 19 12
52 -1 9 5 19 13 22 11 4 15 -2 15 -25 l0 -30 26 20 c15 12 33 21 40 21 8 0 14
11 14 25 0 32 16 32 24 0 7 -28 18 -32 35 -12 6 8 23 12 41 9 32 -5 52 -22 25
-22 -9 0 -15 -6 -12 -12 2 -7 14 -12 26 -11 11 2 21 -2 21 -7 0 -6 -5 -10 -11
-10 -7 0 -9 -9 -6 -22 4 -12 2 -28 -4 -34 -7 -9 -5 -16 10 -24 12 -6 21 -17
21 -25 0 -9 10 -15 25 -15 27 0 32 -9 13 -28 -10 -10 -8 -14 10 -18 13 -4 22
-14 22 -25 0 -13 -5 -17 -17 -12 -15 6 -16 4 -6 -8 8 -9 9 -20 3 -29 -14 -21
-12 -30 5 -30 8 0 15 -4 15 -9 0 -5 10 -7 22 -3 17 4 20 2 16 -14 -4 -17 -1
-19 23 -16 16 2 29 6 29 8 0 1 -11 15 -25 30 -30 33 -32 44 -5 44 15 0 20 7
20 26 0 14 4 23 9 20 4 -3 17 4 27 16 19 20 19 21 -5 13 l-24 -7 22 30 c12 18
18 37 15 47 -6 14 -3 16 17 10 13 -3 19 -3 12 2 -17 12 5 38 40 47 23 5 29 2
39 -19 15 -33 32 -27 36 14 l3 32 30 -37 c16 -20 29 -43 29 -51 0 -21 60 -94
71 -87 5 3 9 -7 9 -21 0 -14 9 -44 20 -66 l21 -40 -33 -27 c-18 -15 -43 -37
-57 -49 -27 -26 -41 -29 -41 -10 0 6 -9 1 -19 -12 -12 -16 -24 -22 -35 -18
-17 7 -22 27 -6 27 6 0 10 5 10 12 0 9 -3 9 -12 0 -16 -16 -41 -15 -33 1 4 6
-2 2 -13 -11 -11 -12 -22 -26 -24 -31 -2 -5 -10 -11 -18 -13 -17 -3 -39 -36
-40 -57 0 -8 6 -11 16 -7 14 5 15 4 4 -9 -7 -8 -17 -12 -22 -9 -6 4 -7 -2 -3
-16 4 -13 1 -37 -8 -59 -8 -20 -22 -61 -32 -91 -10 -30 -27 -66 -38 -80 l-19
-25 548 -3 c457 -2 553 0 579 12 16 8 57 22 90 32 59 16 179 61 242 90 17 8
45 17 62 20 17 4 34 11 37 15 7 12 158 11 170 -1 5 -5 36 -12 69 -15 116 -10
134 -13 145 -20 6 -4 33 1 60 11 l50 18 0 77 0 77 -80 7 -80 7 0 34 c0 27 -4
34 -20 34 -17 0 -20 7 -20 40 0 33 -3 40 -20 40 -13 0 -20 7 -20 20 0 17 -7
20 -40 20 -38 0 -40 -2 -40 -30 0 -28 -2 -30 -40 -30 l-40 0 0 55 0 55 -40 0
c-29 0 -40 4 -40 15 0 11 -11 15 -40 15 -22 0 -40 5 -40 10 0 6 -18 10 -40 10
-22 0 -40 5 -40 10 0 6 -18 10 -40 10 l-40 0 0 40 0 40 -40 0 c-33 0 -40 -3
-40 -20 0 -29 -70 -29 -88 0 -7 12 -17 18 -22 15 -6 -3 -10 -2 -10 4 0 16 18
22 23 9 2 -7 8 -10 12 -6 4 4 2 15 -5 23 -10 12 -10 19 -2 27 7 7 12 22 12 35
0 20 5 23 40 23 27 0 40 -4 40 -14 0 -11 8 -11 40 -3 62 17 54 41 -20 58 -64
14 -91 37 -35 31 18 -2 42 1 52 8 15 9 10 10 -27 6 -41 -6 -43 -5 -26 9 11 8
37 15 58 15 21 0 38 5 38 10 0 6 17 10 38 10 34 0 128 16 302 51 30 6 58 16
62 22 4 6 23 11 42 11 20 0 31 3 26 6 -6 3 8 19 30 36 22 16 40 32 40 35 0 3
12 19 26 35 14 16 30 42 36 57 8 21 13 25 19 15 6 -9 10 -3 15 20 4 17 11 32
16 32 6 0 8 8 6 18 -3 11 1 30 8 43 21 37 17 42 -26 36 -63 -8 -47 9 18 19
l57 9 3 53 3 53 -48 -6 c-26 -3 -69 -11 -95 -17 -39 -10 -61 -8 -125 6 -43 10
-100 21 -128 25 -57 8 -191 75 -206 103 -6 11 -16 17 -24 14 -21 -8 -23 24 -8
125 7 51 12 100 9 109 -2 9 -4 6 -5 -7 -1 -16 -6 -21 -16 -16 -10 3 -15 1 -13
-7 4 -19 -50 -49 -60 -33 -4 6 -46 16 -92 21 -67 7 -89 6 -105 -4 -26 -19
-141 -18 -235 1 -76 16 -200 69 -200 87 0 5 -4 6 -10 3 -5 -3 -10 3 -10 14 0
30 -33 90 -52 97 -10 3 -18 13 -18 21 0 9 -18 39 -39 67 -22 28 -45 65 -51 81
-17 43 -21 187 -9 277 8 55 8 120 0 230 -6 84 -13 181 -16 216 -2 35 -7 73
-11 85 -7 22 -11 60 -13 119 -1 20 -8 43 -16 52 -8 8 -16 30 -16 48 -1 21 -3
26 -6 11 -2 -11 10 -131 26 -265 32 -255 38 -382 21 -483 -6 -33 -19 -129 -30
-214 -11 -84 -22 -157 -25 -161 -2 -4 -11 -78 -20 -165 -9 -87 -20 -166 -25
-175 -5 -10 -7 -20 -3 -23 3 -4 -4 -36 -16 -72 -12 -36 -20 -69 -17 -74 6 -9
-22 -26 -36 -23 -5 1 -8 -3 -8 -8 0 -6 6 -10 13 -10 6 0 -1 -12 -17 -27 -27
-23 -28 -26 -13 -38 9 -7 17 -23 17 -36 0 -18 -3 -20 -9 -10 -7 11 -11 9 -20
-8 -14 -26 -39 -27 -58 -3 -13 15 -13 15 -3 -6 10 -20 8 -26 -7 -38 -10 -7
-24 -14 -30 -14 -7 0 -13 -4 -13 -10 0 -5 -7 -10 -15 -10 -8 0 -15 5 -15 11 0
5 -5 7 -10 4 -6 -4 -7 -11 -4 -17 4 -6 1 -16 -7 -22 -8 -6 -14 -17 -14 -25 0
-20 -35 -23 -36 -3 0 14 -2 14 -6 2 -16 -52 -43 -79 -43 -45 0 8 -4 15 -10 15
-5 0 -6 8 -3 17 5 12 2 15 -10 10 -20 -8 -31 8 -34 52 -1 19 -7 39 -13 45 -12
12 -12 0 -1 -29 8 -20 -14 -54 -26 -41 -3 3 -12 1 -20 -5 -10 -9 -13 -4 -13
26 0 45 -11 41 -12 -4 -1 -41 -12 -39 -33 5 -11 23 -15 48 -11 72 4 25 1 45
-10 62 l-15 25 4 -26 c3 -20 0 -25 -16 -24 -11 1 -26 10 -34 21 -11 15 -16 16
-22 6 -6 -10 -10 -9 -14 7 -5 21 -27 30 -27 10 0 -5 -4 -8 -9 -4 -6 3 -8 -4
-6 -16 3 -15 0 -19 -11 -15 -9 3 -14 1 -13 -7 1 -6 -1 -20 -5 -29 -9 -21 -48
-25 -40 -5 2 7 1 24 -4 36 -4 13 -5 49 -1 79 5 37 4 59 -3 63 -16 10 -5 43 15
47 12 2 20 -4 24 -17 5 -18 7 -19 20 -5 14 13 14 21 3 55 -7 21 -18 39 -23 39
-6 0 -7 18 -4 43 5 31 4 37 -4 22 -7 -16 -8 -14 -3 10 3 17 6 48 7 70 1 22 7
39 13 38 7 -1 8 15 2 50 -5 29 -11 76 -14 105 -10 82 -24 72 -24 -17 0 -44 -9
-127 -21 -183 -12 -57 -27 -134 -34 -173 -13 -72 -39 -181 -55 -225 -22 -65
-21 -78 7 -93 16 -7 27 -19 25 -26 -2 -8 3 -11 12 -8 8 3 17 3 20 -1 11 -10
36 -11 36 -1 0 17 20 9 21 -8 0 -11 3 -13 6 -5 8 20 26 14 20 -8 -3 -11 -1
-18 4 -14 13 8 11 -39 -3 -73 -14 -34 -15 -39 -17 -58 0 -8 -6 -15 -12 -15 -7
0 -9 11 -6 29 4 19 2 31 -6 34 -7 2 -8 8 -3 13 5 5 11 4 13 -4 3 -6 9 -10 13
-7 5 3 7 12 4 19 -3 8 -1 17 5 21 6 3 11 12 11 18 -1 7 -5 6 -13 -4 -14 -18
-57 -32 -57 -18 0 5 6 9 14 9 21 0 31 21 15 31 -8 5 -22 6 -31 3 -14 -4 -58
29 -58 45 0 3 -11 6 -25 6 -22 0 -28 -8 -47 -65 -12 -36 -30 -83 -40 -105 -17
-35 -19 -36 -13 -10 l6 30 -21 -25 -21 -25 6 25 c6 24 5 24 -9 6 -18 -22 -120
-30 -111 -8 19 46 19 46 -5 24 -24 -22 -70 -30 -70 -12 0 6 5 10 10 10 6 0 10
6 10 14 0 9 -7 12 -18 9 -27 -7 -47 21 -27 37 13 11 19 10 36 -6 19 -17 20
-17 26 5 4 17 8 19 14 9 7 -11 9 -11 9 1 0 8 6 11 16 7 8 -3 12 -2 9 4 -3 6 0
10 7 10 7 0 22 7 33 16 18 13 17 14 -14 8 l-33 -7 52 53 c53 54 60 74 16 45
-14 -9 -30 -14 -36 -10 -17 10 6 32 57 55 24 10 58 29 75 41 28 20 30 25 24
66 -4 34 -3 43 9 43 27 0 18 49 -10 60 -16 6 -23 15 -19 24 5 13 0 13 -33 4
-61 -17 -221 -10 -306 13 -29 8 -42 7 -54 -3 -9 -7 -17 -11 -19 -8 -1 3 -6 2
-10 -2 -4 -5 10 -8 32 -8 21 0 51 -6 65 -14 15 -7 39 -11 54 -8 22 4 26 2 23
-14 -2 -15 -12 -19 -41 -19 -20 0 -37 2 -37 5 0 3 -20 12 -45 19 -25 7 -60 23
-78 35 -18 13 -37 21 -43 19 -6 -2 -18 5 -27 14 -33 34 -77 88 -77 95 0 4 -6
13 -13 20 -33 33 -84 156 -91 218 -4 36 -12 70 -18 77 -10 13 -40 214 -32 222
2 2 5 -4 6 -15 2 -23 19 329 20 409 0 31 4 57 8 57 7 0 24 223 22 290 0 19 -3
157 -5 305 -3 156 -9 285 -16 305 -6 19 -11 69 -12 112 -1 43 -4 76 -8 73 -4
-2 -6 73 -5 168 2 95 -1 208 -7 251 -6 44 -11 112 -11 152 -1 93 30 160 105
230 l53 50 -4 -166 c-4 -164 8 -280 29 -280 6 0 8 -9 4 -20 -3 -11 -1 -28 5
-37 8 -15 9 -12 4 11 -5 19 -3 27 4 22 5 -3 13 -25 17 -48 5 -27 10 -36 15
-27 15 28 21 140 11 196 -34 185 -65 502 -53 545 8 33 88 53 203 52 91 -1 113
-4 161 -26 31 -15 64 -37 73 -51 19 -30 39 -138 55 -293 6 -60 21 -154 35
-209 13 -55 28 -156 35 -225 6 -69 17 -172 25 -230 8 -58 19 -193 25 -300 6
-107 13 -201 16 -209 2 -8 9 -84 15 -170 10 -165 47 -483 56 -491 3 -3 3 19
-1 48 -4 29 -3 52 2 52 5 0 9 29 7 65 -1 36 1 65 4 65 3 0 6 34 7 75 0 41 -3
75 -8 75 -4 0 -7 28 -6 63 l1 62 7 -45 c6 -33 8 -13 8 70 -1 238 3 370 13 370
5 0 9 34 9 76 0 56 -4 80 -16 92 -14 14 -16 33 -10 145 4 71 11 138 16 147 7
13 6 20 -3 24 -8 3 -7 8 6 16 19 12 23 72 7 114 -6 18 -6 26 1 26 6 0 1 12
-11 28 -27 34 -52 91 -44 103 3 5 12 9 21 9 11 0 13 5 8 18 -4 9 -11 35 -16
57 -29 152 -55 261 -63 266 -15 11 14 330 33 366 5 10 16 34 25 54 15 35 64
95 71 87 2 -2 -1 -21 -6 -43 -34 -128 -30 -337 8 -474 8 -31 15 -61 16 -68 0
-7 3 -10 7 -8 4 3 15 -14 25 -36 24 -53 43 -72 85 -89 19 -7 42 -19 51 -27 8
-7 26 -13 40 -12 15 0 18 3 9 6 -29 10 -40 37 -40 99 0 34 -4 64 -9 66 -21 8
-72 124 -77 177 -6 59 -29 167 -45 209 -15 38 -38 187 -45 281 -5 76 -4 89 13
110 20 24 22 24 236 29 l215 5 20 -39 c11 -22 30 -86 42 -144 14 -71 36 -134
66 -195 52 -108 69 -173 84 -325 7 -63 13 -116 13 -117 1 -1 27 5 57 14 75 20
260 29 288 14 25 -13 50 -59 87 -158 29 -77 53 -115 118 -192 55 -64 89 -148
176 -431 59 -191 80 -275 120 -475 58 -293 96 -452 171 -710 62 -214 93 -361
116 -550 10 -77 18 -141 19 -143 2 -2 18 6 36 17 81 47 282 94 456 108 l83 6
0 1893 0 1894 -2400 0 -2400 0 0 -3000z m1222 1196 c86 -27 88 -29 88 -99 0
-102 -19 -321 -41 -476 -16 -108 -27 -152 -42 -173 -11 -15 -25 -28 -29 -28
-5 0 -7 -4 -3 -10 3 -5 12 -7 20 -3 11 3 15 -2 15 -17 0 -15 5 -20 14 -17 31
12 41 -58 40 -268 0 -110 -4 -220 -7 -245 -3 -25 -9 -135 -12 -245 -9 -292
-27 -580 -44 -700 -14 -102 -29 -166 -43 -183 -7 -8 -13 -20 -14 -26 0 -6 -2
-19 -2 -28 -1 -10 -21 -27 -44 -39 -34 -17 -60 -21 -144 -21 -56 -1 -105 2
-110 4 -5 3 -28 6 -50 5 -42 0 -124 34 -146 61 -9 10 -8 16 3 22 11 8 10 12
-8 25 -13 9 -23 24 -23 34 0 11 -6 21 -14 24 -14 5 -26 75 -30 163 -1 28 -7
59 -14 67 -10 12 -11 21 -2 36 9 17 8 21 -5 21 -13 0 -14 4 -4 21 6 12 9 32 6
45 -2 14 0 27 4 30 5 3 9 57 9 121 0 95 3 120 17 135 11 13 16 31 14 56 -7 76
-5 121 5 143 32 69 34 98 29 370 -4 172 -2 300 4 344 6 39 13 91 16 117 2 26
11 62 18 80 8 18 20 71 27 118 21 137 46 213 91 269 41 53 114 109 126 97 4
-3 -1 -40 -11 -82 -27 -113 -24 -374 4 -374 7 0 12 62 30 350 9 153 23 247 42
284 9 17 18 18 92 13 44 -4 102 -13 128 -21z m155 -1068 c-3 -8 -6 -5 -6 6 -1
11 2 17 5 13 3 -3 4 -12 1 -19z m-50 -400 c-3 -8 -6 -5 -6 6 -1 11 2 17 5 13
3 -3 4 -12 1 -19z m-10 -160 c-3 -7 -5 -2 -5 12 0 14 2 19 5 13 2 -7 2 -19 0
-25z m0 -320 c-3 -7 -5 -2 -5 12 0 14 2 19 5 13 2 -7 2 -19 0 -25z m3313 -18
c-8 -5 -37 -9 -65 -8 l-50 1 55 7 c30 4 60 7 65 8 6 1 3 -3 -5 -8z m-3292 -95
c0 -16 -2 -15 -8 5 -4 14 -8 34 -8 45 0 16 2 15 8 -5 4 -14 8 -34 8 -45z m-1
-111 c-7 -65 -1 -66 13 -3 9 42 9 42 5 -16 -3 -43 -1 -54 6 -40 7 15 8 10 4
-20 -9 -63 -58 -289 -64 -297 -3 -4 -16 1 -28 10 l-21 17 28 109 c16 60 35
151 42 203 13 101 24 128 15 37z m-930 -96 c-3 -8 -6 -5 -6 6 -1 11 2 17 5 13
3 -3 4 -12 1 -19z m-20 -125 c-3 -10 -5 -4 -5 12 0 17 2 24 5 18 2 -7 2 -21 0
-30z m-8 -77 c1 -38 -57 -226 -70 -226 -6 0 -7 5 -4 10 3 6 1 10 -4 10 -6 0
-2 9 10 21 11 11 18 23 16 26 -8 7 -87 -7 -87 -16 0 -5 -18 -6 -40 -4 -27 3
-40 0 -40 -8 0 -8 -7 -5 -20 6 -15 13 -28 16 -56 11 l-36 -7 18 24 c17 22 57
47 76 47 4 0 17 8 28 17 22 19 92 43 128 43 12 0 22 5 22 10 0 6 5 10 11 10
15 0 38 31 39 50 0 13 -2 13 -11 0 -9 -12 -10 -12 -5 3 3 10 6 24 7 30 1 23
18 -28 18 -57z m1781 -65 c0 -5 -7 -12 -16 -15 -22 -9 -24 -8 -24 9 0 8 9 15
20 15 11 0 20 -4 20 -9z m-110 -26 c0 -8 -4 -15 -9 -15 -5 0 -17 -3 -26 -7
-15 -5 -16 -3 -6 15 13 25 41 29 41 7z m40 -6 c0 -18 -2 -19 -15 -9 -8 7 -15
16 -15 21 0 5 7 9 15 9 9 0 15 -9 15 -21z m-115 1 c4 -6 -5 -10 -19 -10 -14 0
-26 5 -26 10 0 6 9 10 19 10 11 0 23 -4 26 -10z m-1715 -114 c0 -3 -4 -8 -10
-11 -5 -3 -10 -1 -10 4 0 6 5 11 10 11 6 0 10 -2 10 -4z m2230 -66 c0 -5 6
-10 14 -10 8 0 18 -5 21 -10 10 -16 -15 -40 -41 -40 -26 0 -32 15 -11 24 6 3
2 3 -10 0 -24 -6 -28 2 -14 25 5 8 14 10 21 6 9 -5 11 -4 6 3 -4 7 -2 12 3 12
6 0 11 -4 11 -10z m-103 -56 c-3 -3 -12 -4 -19 -1 -8 3 -5 6 6 6 11 1 17 -2
13 -5z m44 -31 c-10 -17 -10 -16 -11 3 0 23 13 41 18 25 2 -6 -1 -18 -7 -28z
m-123 2 c-3 -3 -9 2 -12 12 -6 14 -5 15 5 6 7 -7 10 -15 7 -18z m219 4 c-9 -6
-15 -15 -11 -20 3 -5 0 -17 -7 -26 -11 -13 -10 -17 4 -28 9 -6 14 -15 10 -18
-3 -4 1 -7 10 -7 8 0 18 6 20 13 3 6 6 2 6 -10 1 -16 6 -21 16 -17 8 4 15 1
15 -5 0 -15 15 -14 32 2 7 6 19 13 26 14 16 4 27 -46 13 -60 -6 -6 -11 -19
-11 -28 0 -10 -5 -21 -11 -24 -7 -5 -9 4 -5 29 5 33 4 36 -19 36 -18 0 -25 -5
-25 -20 0 -11 5 -20 10 -20 6 0 10 -5 10 -11 0 -8 -4 -8 -14 0 -10 8 -16 9
-21 1 -8 -13 -27 -13 -62 1 -61 25 -62 25 -79 -78 -4 -17 -12 -34 -20 -37 -16
-6 -18 8 -4 34 8 15 5 22 -12 34 -12 9 -18 19 -14 23 4 4 13 0 20 -10 17 -22
28 -22 25 1 -3 22 21 100 40 131 17 26 17 28 19 80 2 25 6 32 17 28 8 -4 17
-2 21 4 3 6 9 7 12 4 4 -4 -1 -11 -11 -16z m-55 -24 c0 -5 -5 -11 -11 -13 -6
-2 -11 4 -11 13 0 9 5 15 11 13 6 -2 11 -8 11 -13z m629 -46 c-13 -17 -24 -36
-25 -42 -2 -16 -20 -21 -24 -8 -2 6 0 11 5 11 5 0 20 18 32 41 13 22 26 38 29
35 3 -4 -5 -20 -17 -37z m-846 1 c3 -5 1 -10 -4 -10 -6 0 -11 5 -11 10 0 6 2
10 4 10 3 0 8 -4 11 -10z m743 -31 c28 15 55 14 49 -1 -2 -7 -14 -12 -27 -10
-12 1 -34 -6 -48 -17 -50 -35 -108 -38 -95 -5 3 8 0 14 -6 14 -20 0 -11 14 21
37 l32 23 27 -26 c22 -21 30 -24 47 -15z m-1198 13 c0 -5 -14 -9 -30 -9 -20 0
-26 3 -18 9 17 10 48 10 48 0z m650 -2 c0 -5 -8 -10 -17 -10 -15 0 -16 2 -3
10 19 12 20 12 20 0z m-140 -10 c0 -13 -11 -13 -30 0 -12 8 -11 10 8 10 12 0
22 -4 22 -10z m120 -60 c0 -5 -5 -10 -11 -10 -5 0 -7 5 -4 10 3 6 8 10 11 10
2 0 4 -4 4 -10z m446 -36 c-3 -9 -6 -25 -6 -35 0 -11 -4 -17 -10 -14 -11 7
-14 48 -3 58 12 13 25 7 19 -9z m-506 -39 c0 -8 -4 -15 -10 -15 -18 0 -11 -18
10 -25 22 -7 27 -25 8 -25 -29 1 -40 17 -33 49 7 32 25 43 25 16z m445 -24 c3
-5 1 -12 -5 -16 -5 -3 -10 1 -10 9 0 18 6 21 15 7z m17 -38 c-7 -12 -5 -21 5
-32 11 -10 12 -16 4 -19 -34 -11 -55 30 -29 56 18 18 30 15 20 -5z m1088 -433
c0 -17 -7 -20 -40 -20 -22 0 -40 5 -40 10 0 6 14 10 30 10 17 0 30 5 30 10 0
6 5 10 10 10 6 0 10 -9 10 -20z m-89 -91 c-5 -13 -10 -19 -10 -12 -1 15 10 45
15 40 3 -2 0 -15 -5 -28z m489 1 c0 -5 -18 -10 -40 -10 -22 0 -40 5 -40 10 0
6 18 10 40 10 22 0 40 -4 40 -10z m-510 -81 c-16 -28 -22 -19 -14 21 6 25 9
29 16 16 5 -10 5 -24 -2 -37z m27 19 c-3 -7 -5 -2 -5 12 0 14 2 19 5 13 2 -7
2 -19 0 -25z m-1627 -177 c0 -5 -7 -11 -15 -15 -9 -3 -15 0 -15 9 0 8 7 15 15
15 8 0 15 -4 15 -9z m-46 -55 c-3 -9 -10 -16 -15 -16 -5 0 -4 9 3 20 14 22 21
20 12 -4z m1316 -67 c0 -4 -7 -12 -15 -19 -12 -10 -18 -8 -34 11 -12 14 -15
26 -9 30 10 7 58 -12 58 -22z"/>
<path d="M1328 1935 c-3 -14 -1 -25 3 -25 5 0 9 11 9 25 0 14 -2 25 -4 25 -2
0 -6 -11 -8 -25z"/>
<path d="M1315 1881 c-10 -17 12 -21 25 -6 10 12 10 15 -3 15 -9 0 -18 -4 -22
-9z"/>
<path d="M2490 1209 c0 -17 3 -19 14 -10 11 10 17 8 25 -6 9 -16 10 -15 11 10
0 22 -4 27 -25 27 -19 0 -25 -5 -25 -21z"/>
<path d="M2460 1210 c0 -5 5 -10 11 -10 5 0 7 5 4 10 -3 6 -8 10 -11 10 -2 0
-4 -4 -4 -10z"/>
<path d="M2557 1203 c-10 -9 -9 -23 1 -23 5 0 9 7 9 15 0 17 -1 18 -10 8z"/>
<path d="M3157 4010 c7 -135 4 -130 71 -129 42 0 51 3 36 9 -27 11 -63 56 -70
89 -4 14 -12 35 -19 47 -8 11 -16 34 -18 50 -3 16 -3 -14 0 -66z"/>
<path d="M3152 3555 c-1 -27 3 -68 7 -90 l9 -40 0 45 c0 25 -3 65 -7 90 l-8
45 -1 -50z"/>
<path d="M3172 3300 c0 -14 2 -19 5 -12 2 6 2 18 0 25 -3 6 -5 1 -5 -13z"/>
<path d="M2337 2390 c3 -25 7 -47 9 -49 8 -9 2 55 -6 74 -6 13 -7 5 -3 -25z"/>
<path d="M2352 2300 c0 -14 2 -19 5 -12 2 6 2 18 0 25 -3 6 -5 1 -5 -13z"/>
<path d="M2961 2191 c-28 -8 -41 -31 -17 -31 9 0 16 4 16 9 0 4 15 13 33 19
36 11 8 14 -32 3z"/>
<path d="M2915 2107 c-11 -6 -41 -12 -67 -13 -117 -4 -121 -6 -28 -19 52 -7
99 -11 105 -10 5 2 32 6 59 9 63 7 69 14 17 22 -22 4 -41 10 -41 15 0 12 -21
11 -45 -4z"/>
<path d="M2698 2093 c7 -3 16 -2 19 1 4 3 -2 6 -13 5 -11 0 -14 -3 -6 -6z"/>
<path d="M3145 2090 c-3 -5 -1 -10 4 -10 6 0 11 5 11 10 0 6 -2 10 -4 10 -3 0
-8 -4 -11 -10z"/>
<path d="M2975 1489 c-10 -15 1 -23 20 -15 9 3 13 10 10 16 -8 13 -22 13 -30
-1z"/>
<path d="M2591 1403 c-1 -23 4 -45 9 -48 12 -7 12 29 0 65 -7 21 -8 19 -9 -17z"/>
<path d="M4778 1383 c7 -3 16 -2 19 1 4 3 -2 6 -13 5 -11 0 -14 -3 -6 -6z"/>
<path d="M2732 1347 c-8 -10 -6 -13 9 -14 19 -2 26 11 10 21 -5 3 -14 0 -19
-7z"/>
<path d="M4760 1345 c-7 -9 -8 -15 -2 -15 5 0 12 7 16 15 3 8 4 15 2 15 -2 0
-9 -7 -16 -15z"/>
<path d="M2241 784 c0 -11 3 -14 6 -6 3 7 2 16 -1 19 -3 4 -6 -2 -5 -13z"/>
<path d="M2370 735 c0 -8 5 -15 10 -15 6 0 10 7 10 15 0 8 -4 15 -10 15 -5 0
-10 -7 -10 -15z"/>
<path d="M2338 463 c-16 -8 -28 -21 -28 -29 0 -12 6 -11 30 6 17 12 30 26 30
31 0 5 -1 9 -2 8 -2 -1 -15 -8 -30 -16z"/>
<path d="M3100 471 c0 -6 5 -13 10 -16 6 -3 10 1 10 9 0 9 -4 16 -10 16 -5 0
-10 -4 -10 -9z"/>
<path d="M2795 450 c-23 -26 -4 -26 26 0 18 15 20 19 8 20 -9 0 -24 -9 -34
-20z"/>
<path d="M4785 120 c3 -5 8 -10 11 -10 2 0 4 5 4 10 0 6 -5 10 -11 10 -5 0 -7
-4 -4 -10z"/>
</g>
</svg>
